<svg aria-hidden="true" style="width:0;height:0;position:absolute;overflow:hidden" xmlns="http://www.w3.org/2000/svg"><defs><symbol id="icon-Combined" viewBox="0 0 38 32"><path d="M14.38 7.529a.626.626 0 0 0 .625-.627 1.621 1.621 0 0 1 .488-1.176 2.904 2.904 0 0 0 0-3.922 1.624 1.624 0 0 1-.488-1.176.626.626 0 1 0-1.25 0 2.845 2.845 0 0 0 .762 1.961 1.658 1.658 0 0 1 0 2.352 2.843 2.843 0 0 0-.762 1.961c0 .347.28.627.625.627zM31.827 26.98h4.217a1.363 1.363 0 0 1 1.469 1.255v1.255c0 1.407-1.387 2.51-3.157 2.51H5.658c-1.771 0-3.157-1.102-3.157-2.51v-1.255A1.363 1.363 0 0 1 3.97 26.98h5.197a6.85 6.85 0 0 1-2.552-3.443 7.894 7.894 0 0 1-2.133.306c-2.723 0-4.483-2.347-4.483-5.98 0-1.625 0-6.569 4.483-6.569a6.99 6.99 0 0 1 1.769.227v-.855c0-.693.56-1.255 1.25-1.255h15.005c.691 0 1.25.562 1.25 1.255v7.186c.16.071.324.133.491.184.118-.287.252-.567.401-.839a1.16 1.16 0 0 1 .595-.518l3.211-1.231c.258-.098.543-.099.802-.003.272.107.538.23.796.368.217-.32.39-.667.515-1.033a1.776 1.776 0 0 1 1.28-1.171c.019-.299.028-.598.028-.891.005-1.224.011-2.613 1.559-3.204a1.383 1.383 0 0 1 1.203.085c.289.161 1.142.649 1.776 3.702a1.53 1.53 0 0 1 1.018 1.281c.158 1.39.092 2.796-.195 4.165a11.472 11.472 0 0 1-1.635 3.534c.058.123.109.236.15.33.157.355.131.764-.068 1.097a8.698 8.698 0 0 1-3.858 3.271zm2.2-16.289a.143.143 0 0 0-.148-.008c-.684.262-.747.737-.75 2.037-.001.213-.002.441-.011.675a22.961 22.961 0 0 1 2.001-.171c-.472-2.078-.985-2.473-1.092-2.533zm-2.266 4.471a5.583 5.583 0 0 1-.642 1.309 14.36 14.36 0 0 1 3.82 4.518 9.462 9.462 0 0 0 1.086-2.539c.254-1.231.31-2.495.166-3.744a.293.293 0 0 0-.309-.251h-.041a20.676 20.676 0 0 0-3.304.29l-.112.019h-.001c-.084.014-.163.027-.244.044a.535.535 0 0 0-.419.354zm-2.899 1.472-3.137 1.202c-1.556 2.835-1.037 6.741-.739 8.295.048.253.096.464.132.618.416.134.848.212 1.284.232h.825a10.37 10.37 0 0 0 3.067-.7c2.861-1.096 3.974-2.61 4.32-3.209-.375-.808-2.405-5.117-5.752-6.438zm-6.942 9.378c-.331.361-.7.685-1.1.968h3.068l-.016-.073-.035-.16c-.659-.189-1.3-.435-1.916-.735zm-.675-1.883a8.324 8.324 0 0 0 2.346 1.22 15.62 15.62 0 0 1 .25-6.132 5.015 5.015 0 0 1-1.26-.574.456.456 0 0 0-.482.011c-.085.05-.16.098-.231.144l-.088.056a22.185 22.185 0 0 0-2.745 2.027l-.023.023a.378.378 0 0 0-.113.458 10.796 10.796 0 0 0 2.346 2.767zm-3.066-7.359c-.131.34-.015 1.209.635 2.664.424-.343.985-.768 1.666-1.227-.153-.183-.294-.365-.427-.535-.772-.993-1.075-1.293-1.738-1.042a.207.207 0 0 0-.136.14zM4.483 20.078a4.478 4.478 0 0 0 1.769-.393v-4.046a2.657 2.657 0 0 0-1.769-.58c-.309 0-.732 0-.732 2.805 0 1.074.256 2.215.732 2.215zM1.25 17.864c0 2.958 1.209 4.724 3.232 4.724a6.722 6.722 0 0 0 1.848-.275 6.826 6.826 0 0 1-.079-.979v-.314a5.473 5.473 0 0 1-1.769.314c-1.241 0-1.982-1.297-1.982-3.47 0-2.139.151-4.06 1.982-4.06a4.162 4.162 0 0 1 1.769.37v-1.348a5.625 5.625 0 0 0-1.769-.277c-2.864 0-3.232 2.84-3.232 5.315zm6.253 3.469c-.001.428.048.854.146 1.27v-.002a5.6 5.6 0 0 0 5.481 4.379h3.751a5.57 5.57 0 0 0 3.934-1.62l-.02-.014c-.106-.073-.213-.146-.316-.226a12.07 12.07 0 0 1-2.644-3.099 1.584 1.584 0 0 1 .028-1.673c-.892-1.865-1.175-3.192-.85-4.035.148-.397.461-.71.857-.856 1.578-.603 2.457.528 3.165 1.438l.004.005c.166.213.34.427.52.634.291-.154.621-.219.948-.188v-6.679H7.502v10.667zm28.76 8.157v-1.198a.393.393 0 0 0-.219-.057H3.97a.393.393 0 0 0-.219.057v1.198c0 .68.875 1.255 1.907 1.255h28.698c1.032 0 1.907-.575 1.907-1.255zM10.004 6.902a.626.626 0 1 0 1.25 0 1.621 1.621 0 0 1 .488-1.176 2.904 2.904 0 0 0 0-3.922 1.624 1.624 0 0 1-.488-1.176.626.626 0 1 0-1.25 0 2.845 2.845 0 0 0 .762 1.961 1.658 1.658 0 0 1 0 2.352 2.843 2.843 0 0 0-.762 1.961zm8.128.627a.626.626 0 0 1-.625-.627 2.845 2.845 0 0 1 .762-1.961 1.658 1.658 0 0 0 0-2.352 2.843 2.843 0 0 1-.762-1.961.626.626 0 1 1 1.25 0c-.004.443.172.868.488 1.176a2.904 2.904 0 0 1 0 3.922 1.624 1.624 0 0 0-.488 1.176c0 .347-.28.627-.625.627z"/></symbol><symbol id="icon-Shape-2" viewBox="0 0 38 32"><path d="M31.942 15.651c3.539 1.017 6.011 4.312 6.011 8.014 0 4.596-3.718 8.335-8.289 8.335H8.288c-4.571 0-8.289-3.739-8.289-8.335 0-3.702 2.472-6.997 6.011-8.014l1.214-.348a40.242 40.242 0 0 1 5.258-6.54 39.984 39.984 0 0 1 8.847-6.711l1.81-1.011c3.218-1.799 7.283-1.226 9.887 1.392 3.232 3.249 3.232 8.537 0 11.787l-1.348 1.355.263.076zm-.178 1.237-.069-.023c-.03-.01-.059-.021-.09-.029l-.948-.273c.072 1.739.226 3.484.47 5.2.013.092.173.092.186 0 .228-1.61.374-3.247.451-4.874zM23.821 2.074c-.029.014-.058.028-.086.044l-.861.482a51.624 51.624 0 0 0 3.989 3.343c.037.028.089.025.122-.009s.036-.086.009-.123a52.183 52.183 0 0 0-3.109-3.768l-.064.032zm-2.072 1.157c-.745.422-1.477.865-2.191 1.336a53.334 53.334 0 0 1 4.736 5.511 1.338 1.338 0 0 1-.122 1.732 1.316 1.316 0 0 1-1.723.123 53.323 53.323 0 0 1-5.667-4.941l-.231-.233a37.954 37.954 0 0 0-1.868 1.604l1.233 1.24a53.29 53.29 0 0 1 3.542 3.948c3.542.043 7.079.549 10.494 1.53l.381.11 1.828-1.839c2.755-2.77 2.755-7.276 0-10.046a7.069 7.069 0 0 0-7.08-1.757 53.306 53.306 0 0 1 2.892 3.524 1.337 1.337 0 0 1-.122 1.732 1.316 1.316 0 0 1-1.724.123 53.293 53.293 0 0 1-4.378-3.696zm3.961 12.127a38.475 38.475 0 0 0-1.224-.195v.174c0 2.45.175 4.922.518 7.349.013.092.173.092.186 0 .343-2.42.518-4.884.519-7.327zm-7.121-.587-.225.005v1.792c0 2.45.175 4.922.519 7.348.013.092.173.092.186 0 .344-2.426.519-4.899.519-7.349v-1.792l-.225-.005c-.129-.003-.258-.006-.387-.006s-.258.003-.387.006zm4.725-3.956a51.935 51.935 0 0 0-4.786-5.55c-.339.238-.672.483-1.003.732l.122.122a51.948 51.948 0 0 0 5.536 4.828c.037.028.09.025.122-.009s.036-.086.009-.123zm-9.524-1.61-.169.164a16.87 16.87 0 0 0-.271.264 7.494 7.494 0 0 0-.245.259l-.001.001c-.058.063-.116.126-.175.187l1.256 1.263c.777.781 1.59 1.543 2.416 2.274.419-.025.839-.044 1.259-.056a51.821 51.821 0 0 0-2.809-3.088l-1.26-1.267zm-3.622 5.073a19.031 19.031 0 0 0-.311-.323l-.114-.114c-.236.318-.47.636-.697.96.438-.113.878-.218 1.319-.316a19.155 19.155 0 0 1-.197-.206zm1.621-.082c1.038-.19 2.081-.34 3.13-.447a52.838 52.838 0 0 1-1.6-1.535l-1.232-1.24a39.705 39.705 0 0 0-1.596 1.877l.231.233c.362.364.716.737 1.067 1.112zm1.678 1.141v-.174c-.409.059-.817.123-1.224.195.001 2.443.176 4.908.519 7.327.013.092.173.092.186 0 .344-2.426.519-4.899.519-7.349zm-6.171 1.226-.948.273-.09.03a1.859 1.859 0 0 1-.069.023c.077 1.627.223 3.265.451 4.874.013.092.173.092.186 0 .244-1.717.397-3.461.47-5.2zm.993 14.206h21.375c3.896 0 7.065-3.187 7.065-7.104a7.14 7.14 0 0 0-3.76-6.27 53.346 53.346 0 0 1-.444 4.541c-.092.649-.653 1.138-1.305 1.138s-1.212-.489-1.304-1.138a53.457 53.457 0 0 1-.497-5.726 38.251 38.251 0 0 0-2.488-.614 53.662 53.662 0 0 1-.527 7.264c-.092.649-.653 1.138-1.305 1.138s-1.212-.489-1.304-1.137a53.667 53.667 0 0 1-.532-7.524v-.329a37.802 37.802 0 0 0-2.449-.193v1.754c0 2.508-.179 5.039-.532 7.523-.092.649-.653 1.138-1.304 1.138s-1.212-.489-1.304-1.137a53.667 53.667 0 0 1-.532-7.524v-1.754a38.58 38.58 0 0 0-2.449.193v.329c0 2.508-.179 5.039-.532 7.523-.092.649-.653 1.138-1.304 1.138s-1.212-.489-1.305-1.138a53.662 53.662 0 0 1-.527-7.264c-.836.177-1.665.382-2.488.614a53.716 53.716 0 0 1-.497 5.726c-.092.649-.653 1.138-1.304 1.138s-1.212-.489-1.305-1.137a53.41 53.41 0 0 1-.444-4.542 7.139 7.139 0 0 0-3.76 6.27c0 3.917 3.169 7.104 7.065 7.104z"/></symbol><symbol id="icon-Shape" viewBox="0 0 30 32"><path d="M30.327 19.103a.631.631 0 0 1 0 .087.673.673 0 0 1 .007.1v12.04c0 .37-.299.669-.669.669h-.12L.549 26.645a.668.668 0 0 1-.548-.669V14.023a.685.685 0 0 1 .053-.248v-.074c1.959-3.413 5.569-5.595 10.457-6.331a3.25 3.25 0 0 1 1.578-.863c-.067-1.446.127-4.805 3.102-6.418a.677.677 0 1 1 .669 1.178c-2.293 1.231-2.427 4.016-2.313 5.247.487.099.945.31 1.337.616a23.61 23.61 0 0 1 3.075.228.666.666 0 0 1 .354.181l11.894 11.378.06.08a.75.75 0 0 1 .06.107zM14.796 9.659a1.926 1.926 0 0 0-3.851.007v.007a1.926 1.926 0 1 0 3.851-.013zm-5.082-.796a3.2 3.2 0 0 0-.107.796 3.263 3.263 0 1 0 6.252-1.212c.756.04 1.337.107 1.605.141l10.149 9.711-25.794-4.765c1.651-2.383 4.312-3.942 7.896-4.672zM1.357 22.202v3.213l27.666 5.113-.007-3.34-27.659-4.986zm0-1.359v-2.008l27.659 4.986.007 2.021-27.666-5zm0-6.03v2.677l27.666 5.006-.013-2.55-7.134-1.339-20.519-3.795z"/></symbol><symbol id="icon-search" viewBox="0 0 32 32"><path d="m31.008 27.231-7.58-6.447c-.784-.705-1.622-1.029-2.299-.998a11.954 11.954 0 0 0 2.87-7.787c0-6.627-5.373-12-12-12s-12 5.373-12 12 5.373 12 12 12c2.972 0 5.691-1.081 7.787-2.87-.031.677.293 1.515.998 2.299l6.447 7.58c1.104 1.226 2.907 1.33 4.007.23s.997-2.903-.23-4.007zM12 20a8 8 0 1 1 0-16 8 8 0 0 1 0 16z"/></symbol></defs></svg>