<svg aria-hidden="true" style="position: absolute; width: 0; height: 0; overflow: hidden;" version="1.1" xmlns="http://www.w3.org/2000/svg" xmlns:xlink="http://www.w3.org/1999/xlink">
<defs>
<symbol id="icon-Combined" viewBox="0 0 38 32">
<path fill="#f5ae5c" style="fill: var(--color1, #f5ae5c)" d="M14.38 7.529c0.345 0 0.625-0.281 0.625-0.627-0.004-0.443 0.172-0.868 0.488-1.176 1.016-1.108 1.016-2.813 0-3.922-0.316-0.309-0.492-0.734-0.488-1.176 0-0.347-0.28-0.627-0.625-0.627s-0.625 0.281-0.625 0.627c-0.006 0.727 0.267 1.429 0.762 1.961 0.313 0.311 0.488 0.735 0.488 1.176s-0.176 0.865-0.488 1.176c-0.495 0.532-0.768 1.233-0.762 1.961 0 0.347 0.28 0.627 0.625 0.627zM31.827 26.98h4.217c0.361-0.031 0.719 0.084 0.995 0.32s0.447 0.572 0.474 0.935v1.255c0 1.407-1.387 2.51-3.157 2.51h-28.698c-1.771 0-3.157-1.102-3.157-2.51v-1.255c0.027-0.363 0.198-0.699 0.474-0.935s0.634-0.351 0.995-0.32h5.197c-1.196-0.844-2.091-2.051-2.552-3.443-0.694 0.199-1.411 0.302-2.133 0.306-2.723 0-4.483-2.347-4.483-5.98 0-1.625 0-6.569 4.483-6.569 0.597 0 1.192 0.076 1.769 0.227v-0.855c0-0.693 0.56-1.255 1.25-1.255h15.005c0.691 0 1.25 0.562 1.25 1.255v7.186c0.16 0.071 0.324 0.133 0.491 0.184 0.118-0.287 0.252-0.567 0.401-0.839 0.132-0.237 0.342-0.42 0.595-0.518l3.211-1.231c0.258-0.098 0.543-0.099 0.802-0.003 0.272 0.107 0.538 0.23 0.796 0.368 0.217-0.32 0.39-0.667 0.515-1.033 0.195-0.587 0.68-1.031 1.28-1.171 0.019-0.299 0.028-0.598 0.028-0.891v-0c0.005-1.224 0.011-2.613 1.559-3.204 0.393-0.157 0.836-0.126 1.203 0.085 0.289 0.161 1.142 0.649 1.776 3.702 0.557 0.193 0.954 0.692 1.018 1.281 0.158 1.39 0.092 2.796-0.195 4.165-0.34 1.263-0.893 2.459-1.635 3.534 0.058 0.123 0.109 0.236 0.15 0.33 0.157 0.355 0.131 0.764-0.068 1.097-0.935 1.45-2.278 2.588-3.858 3.271zM34.027 10.691c-0.044-0.030-0.101-0.033-0.148-0.008-0.684 0.262-0.747 0.737-0.75 2.037-0.001 0.213-0.002 0.441-0.011 0.675 0.793-0.103 1.475-0.149 2.001-0.171-0.472-2.078-0.985-2.473-1.092-2.533zM31.761 15.162c-0.156 0.463-0.372 0.903-0.642 1.309 1.572 1.223 2.873 2.762 3.82 4.518 0.484-0.788 0.85-1.644 1.086-2.539 0.254-1.231 0.31-2.495 0.166-3.744-0.022-0.152-0.157-0.261-0.309-0.251h-0.041c-1.107 0.008-2.212 0.105-3.304 0.29-0.038 0.007-0.075 0.013-0.112 0.019l-0.001 0-0 0-0 0c-0.084 0.014-0.163 0.027-0.244 0.044-0.194 0.032-0.355 0.168-0.419 0.354zM28.862 16.634l-3.137 1.202c-1.556 2.835-1.037 6.741-0.739 8.295 0.048 0.253 0.096 0.464 0.132 0.618 0.416 0.134 0.848 0.212 1.284 0.232h0.825c1.052-0.076 2.086-0.312 3.067-0.7 2.861-1.096 3.974-2.61 4.32-3.209-0.375-0.808-2.405-5.117-5.752-6.438zM21.92 26.012c-0.331 0.361-0.7 0.685-1.1 0.968h3.068c-0.005-0.024-0.011-0.048-0.016-0.073l-0-0c-0.011-0.049-0.023-0.102-0.035-0.16-0.659-0.189-1.3-0.435-1.916-0.735zM21.245 24.129c0.712 0.529 1.504 0.941 2.346 1.22-0.323-2.040-0.238-4.125 0.25-6.132-0.444-0.132-0.868-0.325-1.26-0.574-0.15-0.089-0.336-0.084-0.482 0.011-0.085 0.050-0.16 0.098-0.231 0.144-0.030 0.019-0.059 0.038-0.088 0.056-0.966 0.604-1.883 1.282-2.745 2.027-0.007 0.008-0.015 0.015-0.023 0.023-0.14 0.107-0.187 0.298-0.113 0.458 0.621 1.049 1.414 1.984 2.346 2.767zM18.179 16.77c-0.131 0.34-0.015 1.209 0.635 2.664 0.424-0.343 0.985-0.768 1.666-1.227-0.153-0.183-0.294-0.365-0.427-0.535-0.772-0.993-1.075-1.293-1.738-1.042-0.066 0.021-0.117 0.074-0.136 0.14zM4.483 20.078c0.61-0.009 1.213-0.143 1.769-0.393v-4.046c-0.501-0.4-1.129-0.607-1.769-0.58-0.309 0-0.732 0-0.732 2.805 0 1.074 0.256 2.215 0.732 2.215zM1.25 17.864c0 2.958 1.209 4.724 3.232 4.724 0.626-0.005 1.248-0.098 1.848-0.275-0.050-0.324-0.076-0.651-0.079-0.979v-0.314c-0.569 0.201-1.166 0.308-1.769 0.314-1.241 0-1.982-1.297-1.982-3.47 0-2.139 0.151-4.060 1.982-4.060 0.61-0.008 1.214 0.119 1.769 0.37v-1.348c-0.571-0.186-1.169-0.28-1.769-0.277-2.864 0-3.232 2.84-3.232 5.315zM7.503 21.333c-0.001 0.428 0.048 0.854 0.146 1.27v-0.002c0.578 2.569 2.857 4.39 5.481 4.379h3.751c1.473 0.002 2.887-0.58 3.934-1.62l-0.020-0.014c-0.106-0.073-0.213-0.146-0.316-0.226-1.050-0.875-1.944-1.923-2.644-3.099-0.31-0.517-0.299-1.166 0.028-1.673-0.892-1.865-1.175-3.192-0.85-4.035 0.148-0.397 0.461-0.71 0.857-0.856 1.578-0.603 2.457 0.528 3.165 1.438l0.004 0.005c0.166 0.213 0.34 0.427 0.52 0.634 0.291-0.154 0.621-0.219 0.948-0.188v-6.679h-15.005v10.667zM36.263 29.49v-1.198c-0.066-0.040-0.142-0.060-0.219-0.057h-32.074c-0.077-0.003-0.153 0.017-0.219 0.057v1.198c0 0.68 0.875 1.255 1.907 1.255h28.698c1.032 0 1.907-0.575 1.907-1.255zM10.004 6.902c0 0.347 0.28 0.627 0.625 0.627s0.625-0.281 0.625-0.627c-0.004-0.443 0.172-0.868 0.488-1.176 1.016-1.108 1.016-2.813 0-3.922-0.316-0.309-0.492-0.734-0.488-1.176 0-0.347-0.28-0.627-0.625-0.627s-0.625 0.281-0.625 0.627c-0.006 0.727 0.267 1.429 0.762 1.961 0.313 0.311 0.488 0.735 0.488 1.176s-0.176 0.865-0.488 1.176c-0.495 0.532-0.768 1.233-0.762 1.961zM18.132 7.529c-0.345 0-0.625-0.281-0.625-0.627-0.006-0.727 0.267-1.429 0.762-1.961 0.313-0.311 0.488-0.735 0.488-1.176s-0.176-0.865-0.488-1.176c-0.495-0.532-0.768-1.233-0.762-1.961 0-0.347 0.28-0.627 0.625-0.627s0.625 0.281 0.625 0.627c-0.004 0.443 0.172 0.868 0.488 1.176 1.016 1.108 1.016 2.813 0 3.922-0.316 0.309-0.492 0.734-0.488 1.176 0 0.347-0.28 0.627-0.625 0.627z"></path>
</symbol>
<symbol id="icon-Shape-2" viewBox="0 0 38 32">
<path fill="#f5ae5c" style="fill: var(--color1, #f5ae5c)" d="M31.942 15.651c3.539 1.017 6.011 4.312 6.011 8.014 0 4.596-3.718 8.335-8.289 8.335h-21.376c-4.571 0-8.289-3.739-8.289-8.335 0-3.702 2.472-6.997 6.011-8.014l1.214-0.348c1.52-2.354 3.285-4.556 5.258-6.54 2.626-2.64 5.602-4.898 8.847-6.711l1.81-1.011c3.218-1.799 7.283-1.226 9.887 1.392 3.232 3.249 3.232 8.537 0 11.787l-1.348 1.355 0.263 0.076zM31.764 16.888c-0.023-0.007-0.046-0.015-0.069-0.023l-0-0c-0.030-0.010-0.059-0.021-0.090-0.029l-0.948-0.273c0.072 1.739 0.226 3.484 0.47 5.2 0.013 0.092 0.173 0.092 0.186 0 0.228-1.61 0.374-3.247 0.451-4.874zM23.821 2.074c-0.029 0.014-0.058 0.028-0.086 0.044l-0.861 0.482c1.272 1.178 2.608 2.302 3.989 3.343 0.037 0.028 0.089 0.025 0.122-0.009s0.036-0.086 0.009-0.123c-0.97-1.3-2.018-2.561-3.109-3.768-0.021 0.011-0.042 0.021-0.064 0.032zM21.749 3.231c-0.745 0.422-1.477 0.865-2.191 1.336 1.696 1.722 3.29 3.573 4.736 5.511 0.391 0.524 0.338 1.269-0.122 1.732-0.254 0.255-0.593 0.386-0.933 0.386-0.277 0-0.556-0.087-0.79-0.263-1.996-1.505-3.902-3.168-5.667-4.941l-0.231-0.233c-0.64 0.514-1.262 1.049-1.868 1.604l1.233 1.24c1.241 1.249 2.429 2.578 3.542 3.948 3.542 0.043 7.079 0.549 10.494 1.53l0.381 0.11 1.828-1.839c2.755-2.77 2.755-7.276 0-10.046-1.868-1.879-4.62-2.516-7.080-1.757 1.010 1.136 1.987 2.311 2.892 3.524 0.391 0.524 0.339 1.269-0.122 1.732-0.254 0.255-0.593 0.386-0.934 0.386-0.278 0-0.556-0.087-0.79-0.263-1.519-1.146-2.988-2.39-4.378-3.696zM25.71 15.358c-0.406-0.072-0.815-0.136-1.224-0.195v0.174c0 2.45 0.175 4.922 0.518 7.349 0.013 0.092 0.173 0.092 0.186 0 0.343-2.42 0.518-4.884 0.519-7.327zM18.589 14.771h-0c-0.075 0.002-0.15 0.003-0.225 0.005v1.792c0 2.45 0.175 4.922 0.519 7.348 0.013 0.092 0.173 0.092 0.186 0 0.344-2.426 0.519-4.899 0.519-7.349v-1.792c-0.075-0.001-0.15-0.003-0.225-0.005h-0c-0.129-0.003-0.258-0.006-0.387-0.006s-0.258 0.003-0.387 0.006h-0zM23.314 10.815c-1.458-1.955-3.068-3.822-4.786-5.55-0.339 0.238-0.672 0.483-1.003 0.732l0.122 0.122c1.723 1.733 3.586 3.357 5.536 4.828 0.037 0.028 0.090 0.025 0.122-0.009s0.036-0.086 0.009-0.123zM13.79 9.205c-0.056 0.055-0.113 0.109-0.169 0.164-0.091 0.087-0.182 0.175-0.271 0.264-0.084 0.084-0.165 0.171-0.245 0.259l-0 0-0 0-0.001 0.001c-0.058 0.063-0.116 0.126-0.175 0.187l1.256 1.263c0.777 0.781 1.59 1.543 2.416 2.274 0.419-0.025 0.839-0.044 1.259-0.056-0.9-1.064-1.832-2.106-2.809-3.088l-1.26-1.267zM10.168 14.278c-0.103-0.109-0.206-0.217-0.311-0.323l-0.114-0.114c-0.236 0.318-0.47 0.636-0.697 0.96 0.438-0.113 0.878-0.218 1.319-0.316-0.066-0.068-0.132-0.137-0.197-0.206l-0-0zM11.789 14.196c1.038-0.19 2.081-0.34 3.13-0.447-0.544-0.503-1.081-1.013-1.6-1.535l-1.232-1.24c-0.55 0.609-1.084 1.234-1.596 1.877l0.231 0.233c0.362 0.364 0.716 0.737 1.067 1.112zM13.467 15.337v-0.174c-0.409 0.059-0.817 0.123-1.224 0.195 0.001 2.443 0.176 4.908 0.519 7.327 0.013 0.092 0.173 0.092 0.186 0 0.344-2.426 0.519-4.899 0.519-7.349zM7.296 16.563l-0.948 0.273c-0.030 0.009-0.060 0.019-0.090 0.030h-0c-0.023 0.008-0.046 0.016-0.069 0.023 0.077 1.627 0.223 3.265 0.451 4.874 0.013 0.092 0.173 0.092 0.186 0 0.244-1.717 0.397-3.461 0.47-5.2zM8.289 30.769h21.375c3.896 0 7.065-3.187 7.065-7.104 0-2.652-1.492-5.055-3.76-6.27-0.084 1.518-0.231 3.041-0.444 4.541-0.092 0.649-0.653 1.138-1.305 1.138s-1.212-0.489-1.304-1.138c-0.269-1.89-0.433-3.814-0.497-5.726-0.823-0.232-1.653-0.438-2.488-0.614-0.012 2.423-0.186 4.865-0.527 7.264-0.092 0.649-0.653 1.138-1.305 1.138s-1.212-0.489-1.304-1.137c-0.353-2.484-0.532-5.016-0.532-7.524v-0.329c-0.814-0.091-1.63-0.155-2.449-0.193v1.754c0 2.508-0.179 5.039-0.532 7.523-0.092 0.649-0.653 1.138-1.304 1.138s-1.212-0.489-1.304-1.137c-0.353-2.484-0.532-5.016-0.532-7.524v-1.754c-0.818 0.039-1.635 0.102-2.449 0.193v0.329c0 2.508-0.179 5.039-0.532 7.523-0.092 0.649-0.653 1.138-1.304 1.138s-1.212-0.489-1.305-1.138c-0.341-2.399-0.515-4.841-0.527-7.264-0.836 0.177-1.665 0.382-2.488 0.614-0.065 1.912-0.228 3.836-0.497 5.726-0.092 0.649-0.653 1.138-1.304 1.138s-1.212-0.489-1.305-1.137c-0.213-1.501-0.36-3.024-0.444-4.542-2.268 1.214-3.76 3.617-3.76 6.27 0 3.917 3.169 7.104 7.065 7.104z"></path>
</symbol>
<symbol id="icon-Shape" viewBox="0 0 30 32">
<path fill="#f5ae5c" style="fill: var(--color1, #f5ae5c)" d="M30.327 19.103c0.002 0.029 0.002 0.058 0 0.087 0.005 0.033 0.007 0.067 0.007 0.1v12.040c0 0.37-0.299 0.669-0.669 0.669h-0.12l-28.996-5.354c-0.322-0.059-0.554-0.342-0.548-0.669v-11.953c0.002-0.085 0.020-0.169 0.053-0.248v-0.074c1.959-3.413 5.569-5.595 10.457-6.331 0.435-0.43 0.981-0.73 1.578-0.863-0.067-1.446 0.127-4.805 3.102-6.418 0.325-0.185 0.738-0.071 0.923 0.254s0.071 0.739-0.254 0.924c-2.293 1.231-2.427 4.016-2.313 5.247 0.487 0.099 0.945 0.31 1.337 0.616 1.029 0.009 2.056 0.085 3.075 0.228 0.134 0.023 0.257 0.086 0.354 0.181l11.894 11.378 0.060 0.080c0.023 0.034 0.043 0.070 0.060 0.107zM14.796 9.659c-0.004-1.065-0.869-1.925-1.932-1.921-1.061 0.004-1.919 0.866-1.919 1.928v0.007c0.004 1.065 0.869 1.925 1.932 1.921s1.922-0.87 1.919-1.934zM9.714 8.863c-0.069 0.26-0.105 0.528-0.107 0.796-0.053 1.803 1.364 3.308 3.166 3.36s3.304-1.366 3.357-3.169c0.014-0.482-0.079-0.961-0.271-1.403 0.756 0.040 1.337 0.107 1.605 0.141l10.149 9.711-25.794-4.765c1.651-2.383 4.312-3.942 7.896-4.672zM1.357 22.202v3.213l27.666 5.113-0.007-3.34-27.659-4.986zM1.357 20.843v-2.008l27.659 4.986 0.007 2.021-27.666-5zM1.357 14.813v2.677l27.666 5.006-0.013-2.55-7.134-1.339-20.519-3.795z"></path>
</symbol>
<symbol id="icon-search" viewBox="0 0 32 32">
<path d="M31.008 27.231l-7.58-6.447c-0.784-0.705-1.622-1.029-2.299-0.998 1.789-2.096 2.87-4.815 2.87-7.787 0-6.627-5.373-12-12-12s-12 5.373-12 12 5.373 12 12 12c2.972 0 5.691-1.081 7.787-2.87-0.031 0.677 0.293 1.515 0.998 2.299l6.447 7.58c1.104 1.226 2.907 1.33 4.007 0.23s0.997-2.903-0.23-4.007zM12 20c-4.418 0-8-3.582-8-8s3.582-8 8-8 8 3.582 8 8-3.582 8-8 8z"></path>
</symbol>
</defs>
</svg>
